<svg width="128" height="158" viewBox="0 0 128 158" fill="none" xmlns="http://www.w3.org/2000/svg">
<path d="M33.5853 148.349H27.1842L25.9672 152H22.0852L28.681 134.281H32.0642L38.6965 152H34.8145L33.5853 148.349ZM28.1699 145.392H32.5996L30.3726 138.76L28.1699 145.392ZM39.5727 145.319C39.5727 143.266 40.0311 141.632 40.9479 140.415C41.8727 139.198 43.1343 138.589 44.7326 138.589C46.0144 138.589 47.0732 139.068 47.9088 140.025V133.308H51.438V152H48.2617L48.0913 150.601C47.2151 151.696 46.0874 152.243 44.7082 152.243C43.1587 152.243 41.9133 151.635 40.9722 150.418C40.0392 149.193 39.5727 147.493 39.5727 145.319ZM43.0897 145.575C43.0897 146.808 43.3047 147.753 43.7347 148.41C44.1647 149.067 44.7894 149.396 45.6088 149.396C46.6959 149.396 47.4626 148.937 47.9088 148.021V142.824C47.4707 141.907 46.7121 141.449 45.6331 141.449C43.9375 141.449 43.0897 142.824 43.0897 145.575ZM53.6163 145.295C53.6163 143.988 53.8678 142.824 54.3708 141.802C54.8738 140.78 55.5959 139.989 56.537 139.429C57.4862 138.869 58.5855 138.589 59.8349 138.589C61.6116 138.589 63.0598 139.133 64.1794 140.22C65.3071 141.307 65.9358 142.784 66.0657 144.65L66.09 145.55C66.09 147.57 65.5261 149.193 64.3984 150.418C63.2707 151.635 61.7577 152.243 59.8592 152.243C57.9608 152.243 56.4437 151.635 55.3078 150.418C54.1801 149.201 53.6163 147.546 53.6163 145.453V145.295ZM57.1333 145.55C57.1333 146.8 57.3685 147.757 57.8391 148.422C58.3096 149.079 58.983 149.408 59.8592 149.408C60.7111 149.408 61.3764 149.083 61.855 148.434C62.3337 147.777 62.573 146.731 62.573 145.295C62.573 144.07 62.3337 143.12 61.855 142.447C61.3764 141.774 60.703 141.437 59.8349 141.437C58.9749 141.437 58.3096 141.774 57.8391 142.447C57.3685 143.112 57.1333 144.147 57.1333 145.55ZM72.1382 145.757V152H68.4874V134.281H75.3996C76.7302 134.281 77.8984 134.525 78.9044 135.011C79.9186 135.498 80.6974 136.192 81.241 137.092C81.7846 137.985 82.0563 139.003 82.0563 140.147C82.0563 141.883 81.46 143.254 80.2674 144.26C79.0829 145.258 77.4401 145.757 75.3388 145.757H72.1382ZM72.1382 142.8H75.3996C76.3651 142.8 77.0993 142.573 77.6023 142.118C78.1134 141.664 78.369 141.015 78.369 140.171C78.369 139.303 78.1134 138.601 77.6023 138.066C77.0912 137.53 76.3854 137.255 75.4848 137.238H72.1382V142.8ZM90.2342 152.243C88.3033 152.243 86.7294 151.651 85.5125 150.467C84.3036 149.282 83.6992 147.704 83.6992 145.733V145.392C83.6992 144.07 83.9548 142.889 84.4659 141.851C84.977 140.804 85.6991 140.001 86.6321 139.441C87.5732 138.873 88.6441 138.589 89.8448 138.589C91.6459 138.589 93.0616 139.157 94.0919 140.293C95.1304 141.429 95.6496 143.039 95.6496 145.124V146.56H87.2649C87.3785 147.42 87.7192 148.11 88.2871 148.629C88.8631 149.148 89.5892 149.408 90.4654 149.408C91.8203 149.408 92.8791 148.917 93.6417 147.935L95.3697 149.87C94.8424 150.617 94.1285 151.201 93.2279 151.623C92.3274 152.037 91.3295 152.243 90.2342 152.243ZM89.8326 141.437C89.1349 141.437 88.567 141.672 88.1289 142.143C87.6989 142.613 87.4231 143.287 87.3014 144.163H92.1935V143.883C92.1773 143.104 91.9663 142.504 91.5607 142.082C91.155 141.652 90.579 141.437 89.8326 141.437ZM101.868 135.596V138.833H104.12V141.413H101.868V147.984C101.868 148.471 101.962 148.82 102.148 149.031C102.335 149.242 102.692 149.347 103.219 149.347C103.608 149.347 103.953 149.319 104.253 149.262V151.927C103.564 152.138 102.854 152.243 102.124 152.243C99.6575 152.243 98.3999 150.998 98.3513 148.507V141.413H96.4285V138.833H98.3513V135.596H101.868Z" fill="#874CF0"/>
<circle cx="64" cy="64" r="64" fill="#CCB4F6" fill-opacity="0.4"/>
<path d="M90.1959 39.4298C89.4332 39.9323 88.8437 40.6574 88.5075 41.5068C88.1714 42.3561 88.1048 43.2883 88.317 44.1768C88.5526 45.1122 89.0775 45.9494 89.8168 46.5689C90.5562 47.1884 91.4722 47.5586 92.4344 47.6268C93.3355 47.6607 94.2242 47.4091 94.9739 46.908C95.7235 46.4068 96.2958 45.6817 96.609 44.836C96.9221 43.9904 96.9603 43.0674 96.7179 42.1988C96.4755 41.3302 95.965 40.5603 95.2592 39.9991C93.8511 38.8861 91.6854 38.4324 90.1959 39.4298Z" fill="#744DBE"/>
<g opacity="0.3">
<path opacity="0.3" d="M90.1959 39.4298C89.4332 39.9323 88.8437 40.6574 88.5075 41.5068C88.1714 42.3561 88.1048 43.2883 88.317 44.1768C88.5526 45.1122 89.0775 45.9494 89.8168 46.5689C90.5562 47.1884 91.4722 47.5586 92.4344 47.6268C93.3355 47.6607 94.2242 47.4091 94.9739 46.908C95.7235 46.4068 96.2958 45.6817 96.609 44.836C96.9221 43.9904 96.9603 43.0674 96.7179 42.1988C96.4755 41.3302 95.965 40.5603 95.2592 39.9991C93.8511 38.8861 91.6854 38.4324 90.1959 39.4298Z" fill="white"/>
</g>
<path d="M90.7995 47.1645C91.0191 46.8719 91.2111 46.5595 91.373 46.2314C91.5553 45.8363 91.6467 45.4055 91.6406 44.9705C91.6344 44.5355 91.5308 44.1074 91.3374 43.7177C91.144 43.328 90.8657 42.9866 90.523 42.7186C90.1803 42.4506 89.7819 42.2629 89.3571 42.1692C88.9985 42.1018 88.6348 42.0645 88.27 42.0579C88.3622 42.0132 88.4628 41.9884 88.5653 41.9852C88.8404 41.95 89.1195 41.9601 89.3913 42.0151C89.8513 42.0925 90.2864 42.2775 90.6613 42.5549C91.0363 42.8323 91.3404 43.1943 91.549 43.6115C91.7576 44.0287 91.8647 44.4892 91.8616 44.9556C91.8586 45.4221 91.7454 45.8812 91.5313 46.2956C91.4105 46.5452 91.2501 46.7736 91.0563 46.9719C90.9022 47.1131 90.8123 47.173 90.7995 47.1645Z" fill="#FAFAFA"/>
<path d="M96.4234 45.3111C96.3183 45.3248 96.2115 45.3146 96.1109 45.2811C95.8302 45.2246 95.5581 45.1311 95.302 45.0029C94.4455 44.5686 93.7652 43.8519 93.376 42.974C92.9883 42.0959 92.9069 41.113 93.1449 40.1831C93.2151 39.9061 93.3155 39.6377 93.4445 39.3827C93.5387 39.2029 93.6029 39.113 93.6157 39.1173C93.6285 39.1216 93.4359 39.5453 93.299 40.2174C93.1161 41.1124 93.2132 42.042 93.5772 42.8798C93.9512 43.7142 94.5807 44.4082 95.3748 44.8616C95.7162 45.0297 96.0662 45.1797 96.4234 45.3111Z" fill="#FAFAFA"/>
<path d="M66.2278 49.8826C66.9083 49.2705 67.3877 48.423 67.0325 47.6011L67.0111 47.5369C66.9232 47.3228 66.7904 47.1301 66.6216 46.9719C66.2462 46.6532 65.7926 46.4405 65.3076 46.3555C63.724 46.0088 62.0505 46.3897 60.4583 46.0773C60.5661 47.0236 60.8786 47.935 61.3742 48.7483C61.8753 49.5655 62.6552 50.1737 63.5699 50.4604C64.026 50.5928 64.508 50.6093 64.9721 50.5084C65.4362 50.4075 65.8678 50.1924 66.2278 49.8826Z" fill="#455A64"/>
<path d="M66.9682 50.5118C66.9169 49.7328 66.6087 48.9708 65.8726 48.7696H65.8169C65.6274 48.7183 65.4295 48.7052 65.2348 48.7311C64.8254 48.8136 64.4456 49.0043 64.1348 49.2833C63.0648 50.1394 62.4228 51.4749 61.3871 52.3695C62.0731 52.797 62.8445 53.0688 63.6469 53.1657C64.4556 53.2629 65.2722 53.0636 65.9453 52.605C66.2771 52.3693 66.5446 52.0543 66.7233 51.6886C66.9019 51.323 66.9862 50.9184 66.9682 50.5118Z" fill="#455A64"/>
<path d="M66.9426 50.4005C66.771 50.4125 66.5988 50.3854 66.4392 50.321C66.2797 50.2567 66.1368 50.1569 66.0215 50.0292C65.9062 49.9014 65.8215 49.7492 65.7737 49.5838C65.7259 49.4185 65.7164 49.2445 65.7458 49.075C65.7752 48.9054 65.8429 48.7448 65.9435 48.6053C66.0442 48.4657 66.1753 48.3509 66.3269 48.2695C66.4785 48.1881 66.6466 48.1423 66.8185 48.1355C66.9905 48.1287 67.1617 48.1612 67.3192 48.2303" fill="#455A64"/>
<path d="M49.8738 78.0821C46.6467 79.1009 43.1713 76.3699 42.2254 73.1339C41.2795 69.8979 42.2254 66.3965 43.411 63.229C44.5966 60.0615 46.0774 56.9111 46.2529 53.5295C46.4498 49.6472 44.6693 45.5765 41.3352 43.5775C38.001 41.5785 33.2031 42.1179 30.7763 45.1698C28.3496 48.2218 29.2826 53.4696 32.8051 55.109C31.8635 54.5868 30.8748 54.0474 29.809 54.0132C28.7433 53.979 27.5449 54.6253 27.3566 55.6869C27.1683 56.7484 27.9729 57.6944 28.8289 58.3279C29.6849 58.9614 30.6865 59.4793 31.2172 60.3996C32.0518 61.8507 31.4098 63.657 31.0117 65.2836C30.3037 68.2018 30.4698 71.2639 31.4894 74.0884C32.509 76.9129 34.337 79.3749 36.7457 81.1678C39.1545 82.9608 42.0374 84.0053 45.0354 84.1713C48.0335 84.3373 51.0141 83.6174 53.606 82.1014" fill="#744DBE"/>
<g opacity="0.3">
<path opacity="0.3" d="M49.0306 78.3346C48.6411 78.63 48.0676 78.2062 47.5968 78.3346C47.433 78.4191 47.291 78.5403 47.1818 78.6888C47.0727 78.8374 46.9994 79.0091 46.9677 79.1907C46.6119 80.0648 46.5038 81.0201 46.6552 81.9516C46.7392 82.4142 46.954 82.8431 47.2741 83.1875C47.5941 83.5319 48.0062 83.7774 48.4614 83.8949C48.579 83.9317 48.7049 83.9326 48.8231 83.8975C48.9412 83.8625 49.0463 83.793 49.1248 83.698C49.1789 83.5788 49.1996 83.4472 49.1847 83.3171L49.0563 78.5743" fill="black"/>
</g>
<path d="M62.975 96L60.4926 81.2197L70.4137 78.6C72.4082 79.1437 74.1715 80.7659 75.1217 82.9233C76.0719 85.0806 75.6695 88.749 74.9205 91.0219C76.8997 90.9571 78.8774 91.1879 80.7884 91.7067C82.6331 92.336 84.4179 93.6629 84.1483 95.9315L62.975 96Z" fill="#744DBE"/>
<path d="M62.975 96L60.4926 81.2197L70.4137 78.6C72.4082 79.1437 74.1715 80.7659 75.1217 82.9233C76.0719 85.0806 75.6695 88.749 74.9205 91.0219C76.8997 90.9571 78.8774 91.1879 80.7884 91.7067C82.6331 92.336 84.4436 93.7357 84.1739 95.9872L62.975 96Z" fill="#744DBE"/>
<g opacity="0.3">
<path opacity="0.3" d="M62.975 96L60.4926 81.2197L70.4137 78.6C72.4082 79.1437 74.1715 80.7659 75.1217 82.9233C76.0719 85.0806 75.6695 88.749 74.9205 91.0219C76.8997 90.9571 78.8774 91.1879 80.7884 91.7067C82.6331 92.336 84.4436 93.7357 84.1739 95.9872L62.975 96Z" fill="black"/>
</g>
<path d="M95.867 65.9214L103.644 59.0256L105.06 62.0219C105.06 62.0219 97.4378 75.1286 96.1195 74.9402C94.8013 74.7519 91.2189 69.5683 87.1657 71.8327L84.1697 68.4383L88.7065 59.0213L95.8584 65.9214" fill="#744DBE"/>
<path d="M53.7601 96H77.8952C77.7796 90.3969 73.7007 91.0176 73.7007 91.0176H68.1367C71.1883 89.3054 72.0743 84.9265 72.0743 84.9265C77.8994 83.3642 82.5604 76.4555 82.5604 76.4555L87.1015 67.0771L87.3369 70.4629L89.4341 66.1825C91.4115 58.6061 85.4879 47.5155 85.4879 47.5155L90.1489 47.6482C90.1489 45.1698 87.1186 45.1698 84.9058 44.6519C82.6931 44.134 83.5105 41.2618 83.5105 41.2618C83.5105 41.2618 88.7493 41.9167 90.8465 39.4383C92.9437 36.9599 91.8951 33.4457 91.8951 33.4457L84.3237 34.3574C83.2751 33.1846 79.5472 31.4938 77.0991 32.1444C74.6509 32.7951 70.1098 36.3136 69.2966 38.2655C68.4834 40.2174 68.1281 46.4753 67.713 51.8173C67.2978 57.1593 63.9337 60.6736 60.9077 64.0637C57.8817 67.4538 53.4305 69.8123 50.3917 73.4592C49.4458 74.6021 48.975 76.5668 48.7781 78.7327C48.2843 84.3279 49.7108 89.9244 52.8228 94.6003L53.7601 96Z" fill="#744DBE"/>
<path d="M87.598 62.9936C87.598 63.1862 87.7435 91.7024 87.7435 91.7024C87.7435 91.7024 93.1534 92.1305 93.8939 95.9829H84.1782C84.1782 95.9829 78.2119 78.4845 76.3715 77.0034C74.8691 75.9051 73.2569 74.9655 71.5607 74.1997L74.2743 73.0569L72.421 70.7112C72.421 70.7112 73.277 71.7 74.3984 70.0948" fill="#744DBE"/>
<path d="M76.0376 35.3077C76.0539 35.3822 76.0611 35.4583 76.059 35.5346C76.059 35.7101 76.059 35.9241 76.059 36.1852C76.059 36.7844 76.059 37.5977 76.059 38.5822C76.059 39.5667 76.059 40.808 76.059 42.135C76.0713 42.8394 76.0442 43.5439 75.9777 44.2452C75.9144 45.0106 75.699 45.7557 75.3442 46.4368C74.9647 47.1273 74.3328 47.6442 73.5809 47.8793C72.8779 48.0785 72.1306 48.0561 71.4409 47.8151C70.8206 47.6101 70.2635 47.249 69.823 46.7664C69.4482 46.343 69.1577 45.852 68.967 45.3196C68.7013 44.5533 68.6064 43.7381 68.6888 42.9312C68.7069 42.7137 68.7398 42.4978 68.7873 42.2848C68.7973 42.2092 68.819 42.1355 68.8515 42.0665C68.8729 42.0665 68.8044 42.3747 68.7744 42.9226C68.7274 43.7141 68.8439 44.5067 69.1168 45.2511C69.3053 45.7593 69.5885 46.227 69.9514 46.6294C70.3764 47.0803 70.9076 47.4174 71.4965 47.6097C72.1428 47.8268 72.8396 47.8432 73.4953 47.6567C74.1934 47.4368 74.7793 46.9551 75.1302 46.3127C75.47 45.6575 75.678 44.942 75.7423 44.2067C75.8096 43.514 75.8396 42.8181 75.8322 42.1221C75.8536 40.7909 75.8707 39.5924 75.8835 38.5694C75.8964 37.5464 75.922 36.7716 75.9349 36.1723C75.9349 35.9112 75.9563 35.6972 75.9606 35.5217C75.9758 35.447 76.0017 35.3749 76.0376 35.3077Z" fill="#263238"/>
<path d="M89.6139 33.7667C89.5582 34.1619 89.6563 34.5633 89.8878 34.8882C90.1221 35.1807 90.4291 35.4066 90.778 35.5431C91.2055 35.7798 91.7039 35.8543 92.1819 35.7529C92.2512 35.1608 92.2281 34.5615 92.1134 33.9765C92.1062 33.8848 92.0801 33.7956 92.0366 33.7145C91.9931 33.6335 91.9333 33.5623 91.8609 33.5056C91.7675 33.4607 91.6648 33.4387 91.5613 33.4414C90.8965 33.4119 90.233 33.5227 89.6139 33.7667Z" fill="#263238"/>
<path d="M102.047 60.9261C102.882 59.8603 103.657 58.8758 104.436 58.3578C105.247 57.772 106.226 57.4642 107.226 57.4804C107.723 57.4931 108.209 57.6293 108.64 57.8766C109.071 58.124 109.434 58.4747 109.696 58.8972C109.946 59.3275 110.046 59.8285 109.981 60.3218C109.916 60.8151 109.689 61.2729 109.336 61.6238C108.737 62.1238 107.976 62.3872 107.196 62.3643C106.776 62.3797 106.363 62.253 106.023 62.0048C105.848 61.8402 105.734 61.6216 105.698 61.384C105.662 61.1464 105.708 60.9037 105.827 60.695L104.936 62.2659L102.047 60.9261Z" fill="#744DBE"/>
<path d="M87.598 89.9603C87.5381 89.9603 87.5209 83.8607 87.5595 76.3442C87.598 68.8278 87.6836 62.7324 87.7435 62.7324C87.8034 62.7324 87.8248 68.8278 87.782 76.3485C87.7392 83.8692 87.6579 89.9603 87.598 89.9603Z" fill="#263238"/>
<path d="M76.5512 96C76.517 96 76.5769 95.7047 76.5512 95.2424C76.5173 94.6417 76.3162 94.0625 75.9705 93.5702C75.6249 93.0778 75.1486 92.6918 74.5952 92.4558C74.1672 92.2717 73.8762 92.2289 73.8848 92.1947C74.1459 92.161 74.4113 92.2011 74.6509 92.3103C75.2582 92.5199 75.7841 92.9156 76.1536 93.4412C76.5232 93.9668 76.7178 94.5956 76.7096 95.2381C76.7272 95.5017 76.6724 95.7652 76.5512 96Z" fill="#263238"/>
<path d="M61.1602 78.5187C61.2258 78.4812 61.2945 78.4497 61.3657 78.4245C61.5651 78.3382 61.7695 78.2639 61.9777 78.2019C62.7414 77.9649 63.5328 77.8282 64.3317 77.7953C65.5269 77.7412 66.7196 77.9456 67.8285 78.3946C69.1982 78.9356 70.3775 79.8693 71.2183 81.0784C71.6424 81.7122 71.9417 82.4212 72.1 83.1672C72.2359 83.8639 72.2576 84.5781 72.1642 85.2818C72.011 86.47 71.5703 87.6028 70.8802 88.582C70.3989 89.2207 69.8492 89.8049 69.2409 90.3241C69.0312 90.5125 68.86 90.6495 68.7444 90.7522C68.689 90.8041 68.6272 90.8487 68.5604 90.8849C68.606 90.8242 68.6576 90.7682 68.7145 90.7179L69.181 90.2685C69.7595 89.7304 70.2854 89.1384 70.7518 88.5007C71.4046 87.5332 71.817 86.4237 71.9545 85.2647C72.0387 84.5845 72.0141 83.8953 71.8817 83.2229C71.7265 82.5041 71.436 81.8214 71.0257 81.2111C70.2078 80.037 69.0656 79.1266 67.7386 78.5915C66.6542 78.1435 65.4875 77.9291 64.3146 77.9622C63.524 77.9796 62.7381 78.0902 61.9734 78.2918C61.4598 78.4288 61.1688 78.5401 61.1602 78.5187Z" fill="#263238"/>
<path d="M79.4959 82.1485C79.4959 82.1485 79.4617 82.11 79.406 82.0287L79.1835 81.6648C78.9951 81.3481 78.7255 80.8772 78.4002 80.2737C78.0749 79.6701 77.6897 78.9425 77.2831 78.0949C76.8168 77.16 76.4177 76.193 76.089 75.2014L76.2816 75.2228C76.0162 75.715 75.7423 76.2329 75.4641 76.768L75.3614 76.9563L75.2672 76.7637C74.8935 75.9854 74.7453 75.1179 74.8392 74.2597C74.8676 73.9886 74.9206 73.7207 74.9976 73.4592L75.1902 73.5577L73.782 75.394L73.6322 75.5909L73.5937 75.3469C73.2474 73.2344 73.2982 71.0758 73.7435 68.9819C73.8712 68.3742 74.0371 67.7752 74.24 67.1884C74.3085 66.9829 74.3727 66.8288 74.4112 66.7261C74.4296 66.6708 74.454 66.6177 74.484 66.5677C74.441 66.7871 74.3823 67.0031 74.3085 67.2141C74.1886 67.6421 74.026 68.2328 73.8805 69.0076C73.4864 71.0873 73.4618 73.2201 73.8077 75.3084L73.6151 75.2613L75.019 73.4207L75.3785 72.9456L75.2116 73.5191C75.1417 73.7686 75.093 74.0234 75.066 74.2811C74.985 75.1015 75.1332 75.9283 75.4941 76.6695H75.3015L76.1275 75.1286L76.2431 74.906L76.3158 75.1457C76.638 76.1287 77.0241 77.0895 77.4714 78.0222C77.8652 78.8783 78.2333 79.6102 78.5414 80.218L79.2733 81.6391C79.3575 81.8044 79.4318 81.9745 79.4959 82.1485Z" fill="#263238"/>
<path d="M92.5371 96C92.5029 96 92.4729 95.7089 92.3188 95.2638C92.1259 94.6873 91.795 94.1667 91.3548 93.7474C90.9147 93.3282 90.3787 93.0229 89.7936 92.8582C89.3442 92.7298 89.0489 92.7126 89.0489 92.6784C89.3082 92.6213 89.5779 92.6316 89.8321 92.7083C90.4619 92.8422 91.0425 93.1473 91.5099 93.5901C91.9752 94.0338 92.3073 94.5986 92.4686 95.221C92.5566 95.4708 92.5801 95.7387 92.5371 96Z" fill="#263238"/>
<path d="M104.958 58.1353C104.843 58.2693 104.714 58.3899 104.573 58.4948L103.464 59.4108C102.544 60.1813 101.273 61.2471 99.8902 62.4499C98.5078 63.6527 97.2709 64.7657 96.3806 65.5747L95.332 66.5249C95.2089 66.6493 95.0726 66.7598 94.9254 66.8545C95.0255 66.7104 95.1418 66.5782 95.2721 66.4607C95.5032 66.221 95.8499 65.8743 96.2822 65.4591C97.1382 64.603 98.3665 63.4901 99.749 62.283C101.131 61.0759 102.428 60.0272 103.374 59.2867C103.849 58.9186 104.23 58.6232 104.513 58.4306C104.651 58.3179 104.8 58.2189 104.958 58.1353Z" fill="#263238"/>
<path d="M107.41 60.5323C107.389 60.558 107.282 60.4724 107.094 60.4039C106.849 60.3167 106.581 60.3167 106.336 60.4039C106.095 60.4988 105.893 60.6722 105.762 60.8962C105.66 61.0717 105.634 61.2044 105.6 61.2001C105.565 61.1958 105.54 61.0545 105.621 60.8319C105.674 60.685 105.758 60.5514 105.868 60.441C105.979 60.3305 106.112 60.2458 106.259 60.193C106.406 60.1402 106.563 60.1206 106.718 60.1356C106.873 60.1506 107.024 60.1999 107.158 60.2798C107.363 60.3825 107.432 60.5152 107.41 60.5323Z" fill="#263238"/>
<g opacity="0.3">
<path opacity="0.3" d="M87.5937 71.4859L89.9648 71.1478C90.1288 71.1396 90.2867 71.083 90.4185 70.9851C90.6282 70.7925 90.5812 70.4544 90.517 70.1804C89.9281 67.7631 89.0093 65.4384 87.7863 63.2718C87.568 66.1268 87.4867 68.9947 87.5509 71.8583" fill="black"/>
</g>
<g opacity="0.3">
<path opacity="0.3" d="M73.9575 66.9872C73.0502 68.476 72.4424 70.1279 72.1685 71.8498C72.0377 72.7104 72.0841 73.5887 72.3049 74.4308C72.5257 75.2728 72.9162 76.0609 73.4525 76.7466C74.0412 77.3761 74.7087 77.9272 75.4384 78.386L77.4885 79.7985C77.5799 78.2477 77.0589 76.7229 76.0376 75.5524C75.8792 75.9804 75.7252 76.4298 75.5668 76.8664C75.2287 76.442 74.9905 75.9469 74.8697 75.4178C74.7489 74.8888 74.7487 74.3393 74.8691 73.8102L73.4567 75.3383C73.4447 72.5497 73.7085 69.7667 74.2443 67.03" fill="black"/>
</g>
<g opacity="0.3">
<path opacity="0.3" d="M68.7659 43.4063C68.8087 44.7418 69.0013 46.2271 69.7845 47.3143C70.1617 47.8695 70.6804 48.3139 71.2869 48.6014C71.8934 48.8888 72.5657 49.009 73.2342 48.9494C74.8606 48.714 76.0333 47.1517 76.3501 45.5251C76.6668 43.8985 76.3158 42.2506 75.9606 40.6454C76.0462 42.1436 76.1232 43.6888 75.6053 45.097C75.0875 46.5053 73.8248 47.7552 72.3226 47.7552C71.8007 47.7384 71.2906 47.5966 70.8348 47.3419C70.379 47.0872 69.991 46.7269 69.7032 46.2913C69.0784 45.4559 68.7487 44.4366 68.7659 43.3934" fill="black"/>
</g>
<g opacity="0.3">
<path opacity="0.3" d="M66.857 50.3277C67.5846 54.3171 71.7233 57.1764 75.3571 59.0256C78.9908 60.8747 83.0355 61.8121 87.0929 62.2873C87.8879 62.4006 88.6918 62.4392 89.494 62.4028C89.9819 62.3643 90.5769 62.1717 90.6411 61.688C90.7053 61.2043 90.1317 60.8319 89.6438 60.6436C84.3645 58.5926 79.2184 56.2137 74.2357 53.5209C71.9844 52.301 69.716 51.004 67.2079 50.4818" fill="black"/>
</g>
<path d="M67.0581 47.7638C66.8451 47.7986 66.6348 47.8487 66.4289 47.9136C66.1989 48.0079 65.9986 48.1624 65.849 48.361C65.6995 48.5595 65.6062 48.7947 65.579 49.0418C65.5519 49.2889 65.5918 49.5388 65.6947 49.7651C65.7976 49.9914 65.9596 50.1858 66.1636 50.3278C66.3499 50.4343 66.5429 50.5287 66.7414 50.6103C66.5092 50.6496 66.2708 50.5958 66.078 50.4605C65.8563 50.3314 65.672 50.1471 65.543 49.9254C65.3861 49.6491 65.3202 49.3304 65.3548 49.0146C65.3894 48.6988 65.5226 48.4019 65.7356 48.1661C65.9116 47.9792 66.1326 47.8406 66.3776 47.7638C66.485 47.7172 66.6008 47.6932 66.7178 47.6932C66.8349 47.6932 66.9507 47.7172 67.0581 47.7638Z" fill="#263238"/>
<path d="M66.9554 49.5273C66.8955 49.5273 66.7671 49.1549 66.4675 48.7611C66.1679 48.3673 65.8383 48.1361 65.8726 48.0762C65.9068 48.0163 66.322 48.1875 66.6472 48.6284C66.9725 49.0693 67.0153 49.523 66.9554 49.5273Z" fill="#263238"/>
<path d="M66.6558 48.9281C66.6986 48.9709 66.506 49.2149 66.185 49.4075C65.864 49.6001 65.5601 49.6557 65.543 49.5958C65.5259 49.5359 65.7699 49.3989 66.0695 49.2149C66.369 49.0308 66.6044 48.881 66.6558 48.9281Z" fill="#263238"/>
<path d="M65.0893 49.3347C64.8555 49.3566 64.6246 49.4025 64.4002 49.4717C63.8792 49.7043 63.4278 50.0687 63.0905 50.5289C62.5829 51.1837 62.0171 51.7911 61.3999 52.3438C61.8483 51.6462 62.3583 50.9901 62.9236 50.3834C63.2804 49.8935 63.7774 49.5234 64.3489 49.3218C64.4667 49.2736 64.5931 49.2498 64.7204 49.252C64.8477 49.2542 64.9732 49.2824 65.0893 49.3347Z" fill="#263238"/>
<path d="M64.9438 51.4578C64.9053 51.4064 65.1664 51.1624 65.4403 50.8286C65.7142 50.4947 65.9068 50.1993 65.9624 50.225C66.0181 50.2507 65.9068 50.6145 65.6115 50.9698C65.3162 51.3251 64.9438 51.5049 64.9438 51.4578Z" fill="#263238"/>
<path d="M64.6956 50.5931C64.6956 50.5332 64.9181 50.4262 65.2092 50.3063C65.5002 50.1865 65.7484 50.1009 65.7827 50.1565C65.8169 50.2122 65.6029 50.3877 65.2948 50.5161C64.9866 50.6445 64.7084 50.6531 64.6956 50.5931Z" fill="#263238"/>
<path d="M63.9123 48.0463C63.9123 47.9863 64.3018 47.8536 64.8111 47.9264C65.3204 47.9992 65.6671 48.2346 65.6457 48.2817C65.6243 48.3288 65.252 48.2089 64.7897 48.149C64.3275 48.0891 63.9208 48.1105 63.9123 48.0463Z" fill="#263238"/>
<path d="M64.5158 47.126C64.5158 47.0661 64.9438 47.0917 65.3076 47.417C65.6714 47.7424 65.7356 48.1533 65.6885 48.1618C65.6414 48.1704 65.4788 47.8622 65.1578 47.584C64.8368 47.3058 64.4815 47.1902 64.5158 47.126Z" fill="#263238"/>
<path d="M66.857 50.3277C67.7558 52.224 69.0869 53.324 70.709 54.6082C75.5809 58.6064 81.5123 61.0979 87.7777 61.7779C88.3136 61.8558 88.8587 61.8457 89.3913 61.748C89.6557 61.6977 89.9067 61.5926 90.1279 61.4392C90.3491 61.2858 90.5356 61.0877 90.6753 60.8576C91.0049 60.2584 90.8765 59.5221 90.7224 58.8587C90.2807 56.9064 89.7088 54.9858 89.0104 53.11C88.9639 52.9537 88.8868 52.8082 88.7835 52.682C88.4454 52.331 88.3213 52.3395 87.8591 52.5108C84.5164 53.7393 80.3219 53.3412 76.8979 52.3438C73.4739 51.3465 70.4393 49.9725 66.904 49.5273L66.857 50.3277Z" fill="#455A64"/>
<path d="M89.4598 54.5183L89.2201 54.5611L88.5396 54.6767C88.2443 54.728 87.8805 54.7879 87.4567 54.8265C87.033 54.865 86.5494 54.9378 86.0101 54.9592C85.4708 54.9806 84.8887 55.0319 84.2553 55.0234C83.6218 55.0148 82.9456 55.0234 82.2351 54.9806C80.6962 54.8806 79.1661 54.6747 77.6555 54.3642C76.1479 54.04 74.6649 53.6109 73.2171 53.0801C72.5537 52.8189 71.9331 52.5835 71.351 52.3096C70.7689 52.0356 70.2468 51.7916 69.7717 51.5434C69.2966 51.2951 68.8729 51.0511 68.4877 50.8371C68.1025 50.6231 67.8072 50.4348 67.5546 50.2635L66.9768 49.8869L66.7799 49.7499L66.9897 49.8697L67.576 50.2378C67.8285 50.4005 68.141 50.5931 68.5134 50.7943C68.8857 50.9955 69.3009 51.2566 69.7974 51.4877C70.2938 51.7189 70.7989 51.9971 71.381 52.2411C71.9631 52.4851 72.5837 52.7462 73.2471 53.003C74.6911 53.5319 76.1698 53.9609 77.6726 54.2871C79.1807 54.5943 80.7079 54.7988 82.2437 54.8992C82.9499 54.9292 83.6218 54.972 84.2553 54.9549C84.8887 54.9378 85.4708 54.9335 86.0058 54.8992C86.5408 54.865 87.0244 54.8222 87.4482 54.7794C87.8719 54.7366 88.24 54.6938 88.5353 54.6467L89.2201 54.5482C89.3742 54.5226 89.4598 54.5183 89.4598 54.5183Z" fill="#E0E0E0"/>
<path d="M90.5854 57.9426C90.5854 57.9426 90.2259 58.0154 89.5625 58.1139C88.6287 58.2431 87.6885 58.3217 86.7462 58.3493C80.455 58.5391 74.3025 56.4779 69.395 52.5365C68.6583 51.9487 67.9553 51.3199 67.2892 50.6531C66.8184 50.1779 66.5745 49.8997 66.5745 49.8997L66.7671 50.088C66.8955 50.2079 67.0709 50.4005 67.3106 50.6274C67.79 51.0939 68.5005 51.7446 69.4506 52.4894C74.3658 56.3874 80.4922 58.4383 86.7633 58.2851C87.7036 58.2645 88.6421 58.1959 89.5753 58.0796C89.9092 58.0411 90.1617 57.994 90.3372 57.9726L90.5854 57.9426Z" fill="#E0E0E0"/>
<path d="M69.5533 53.5081C69.5533 53.5081 69.5533 53.461 69.5148 53.3754C69.4919 53.2553 69.4776 53.1337 69.472 53.0116C69.4477 52.6063 69.4911 52.1998 69.6004 51.8088C69.7124 51.4178 69.8873 51.0477 70.1183 50.713C70.1896 50.6129 70.2668 50.5171 70.3494 50.4262C70.4094 50.362 70.4436 50.332 70.4479 50.3363C70.4521 50.3406 70.3366 50.4904 70.1739 50.7644C69.9596 51.1013 69.7953 51.4675 69.686 51.8516C69.5802 52.2349 69.5284 52.6311 69.5319 53.0287C69.5362 53.3326 69.5662 53.5081 69.5533 53.5081Z" fill="#E0E0E0"/>
<path d="M67.8071 51.9757C67.7894 51.8652 67.7894 51.7524 67.8071 51.6419C67.8502 51.3752 67.9219 51.114 68.0211 50.8628C68.1204 50.6129 68.2467 50.3746 68.3978 50.1523C68.4562 50.0554 68.5299 49.9687 68.616 49.8954C68.4263 50.2195 68.2549 50.5539 68.1025 50.8971C67.9861 51.2515 67.8875 51.6115 67.8071 51.9757Z" fill="#E0E0E0"/>
<path d="M71.8346 55.4471C71.8875 55.2313 71.9518 55.0184 72.0272 54.8094C72.3444 53.7847 72.5243 52.7224 72.5622 51.6504C72.5622 51.2224 72.5622 50.9827 72.5879 50.9827C72.6037 51.0412 72.6109 51.1018 72.6093 51.1624C72.6093 51.278 72.6093 51.4449 72.6093 51.6504C72.6069 52.1899 72.5596 52.7282 72.4681 53.2598C72.3782 53.792 72.2451 54.316 72.07 54.8265C72.0016 55.0234 71.9416 55.1775 71.8945 55.2845C71.8786 55.3401 71.8586 55.3945 71.8346 55.4471Z" fill="#E0E0E0"/>
<path d="M75.6439 57.9812C75.6109 57.9093 75.5837 57.8348 75.5625 57.7586C75.5155 57.6131 75.4598 57.399 75.3999 57.1337C75.1024 55.7365 75.1494 54.288 75.5369 52.9131C75.5917 52.7053 75.6588 52.5009 75.738 52.301C75.76 52.2259 75.7916 52.1539 75.8322 52.087C75.817 52.1643 75.7956 52.2401 75.768 52.3139C75.7209 52.4594 75.661 52.6691 75.5968 52.9303C75.4247 53.6141 75.3257 54.3143 75.3015 55.0191C75.2796 55.7235 75.3341 56.4282 75.4641 57.1208C75.5112 57.3862 75.5583 57.6002 75.5968 57.75C75.6184 57.8258 75.6342 57.903 75.6439 57.9812Z" fill="#E0E0E0"/>
<path d="M79.8254 59.9288C79.7818 59.8462 79.7488 59.7585 79.727 59.6677C79.6714 59.4964 79.5986 59.2396 79.5173 58.9314C79.3087 58.1142 79.1585 57.2831 79.0679 56.4445C78.9815 55.6056 78.9543 54.7617 78.9866 53.919C78.9866 53.598 79.0208 53.3369 79.0422 53.1571C79.0477 53.0637 79.0591 52.9708 79.0764 52.8789C79.0876 52.9713 79.0876 53.0647 79.0764 53.1571C79.0764 53.3369 79.0764 53.5851 79.0508 53.9233C79.0173 55.6024 79.1941 57.2791 79.5772 58.9143C79.65 59.2311 79.7142 59.4836 79.7612 59.6548C79.789 59.7445 79.8104 59.8361 79.8254 59.9288Z" fill="#E0E0E0"/>
<path d="M83.1553 53.2427C83.2008 53.3436 83.2324 53.4501 83.2495 53.5595C83.3024 53.8611 83.3024 54.1696 83.2495 54.4712C83.1938 54.8522 83.0569 55.293 82.9841 55.7896C82.9267 56.0519 82.9225 56.323 82.9718 56.587C83.021 56.8509 83.1227 57.1023 83.2709 57.3263C83.4608 57.5343 83.6716 57.7222 83.9 57.887C84.1221 58.0485 84.2918 58.2718 84.388 58.5291C84.4892 58.9795 84.4222 59.4515 84.1996 59.856C84.0413 60.207 83.9043 60.4809 83.8401 60.6864C83.7759 60.8919 83.7588 61.0032 83.7502 61.0032C83.7559 60.8915 83.7745 60.7809 83.8059 60.6736C83.8996 60.381 84.0125 60.0951 84.144 59.8175C84.3518 59.4233 84.4111 58.9675 84.3109 58.5333C84.2154 58.2934 84.0536 58.0855 83.8444 57.9341C83.6103 57.7666 83.3951 57.5743 83.2024 57.3605C83.0463 57.1272 82.9393 56.8646 82.8878 56.5887C82.8363 56.3128 82.8414 56.0292 82.9028 55.7553C82.9841 55.2502 83.1254 54.8136 83.1896 54.4412C83.2498 54.147 83.2643 53.8453 83.2324 53.5466C83.1896 53.354 83.1467 53.2427 83.1553 53.2427Z" fill="#E0E0E0"/>
<path d="M88.9975 61.8121C89.1143 61.7559 89.2167 61.674 89.2971 61.5724C89.3931 61.4254 89.4558 61.2593 89.4809 61.0856C89.5061 60.9118 89.493 60.7347 89.4427 60.5665C89.251 60.0772 88.9407 59.6433 88.5396 59.3038C88.3182 59.0777 88.1281 58.8229 87.9746 58.5462C87.8161 58.2453 87.6995 57.9241 87.6279 57.5917C87.5064 56.9523 87.4235 56.3062 87.3797 55.6569C87.336 55.1323 87.2238 54.6157 87.0458 54.1202C86.9212 53.7882 86.7386 53.4809 86.5066 53.2128C86.3354 53.0287 86.2198 52.9474 86.2241 52.9388C86.3357 53.0115 86.4391 53.0962 86.5322 53.1914C86.7793 53.4539 86.9727 53.7621 87.1015 54.0988C87.2932 54.596 87.4142 55.1176 87.461 55.6483C87.5098 56.2931 87.5941 56.9347 87.7135 57.5702C87.8408 58.2033 88.1485 58.786 88.5995 59.2482C89.0035 59.5936 89.3141 60.0353 89.5026 60.5323C89.5534 60.708 89.5636 60.8929 89.5324 61.0731C89.5013 61.2533 89.4296 61.424 89.3228 61.5724C89.2621 61.6502 89.1846 61.7131 89.096 61.7565C89.0318 61.8036 89.0018 61.8164 88.9975 61.8121Z" fill="#E0E0E0"/>
<path d="M65.62 50.3962C65.6015 50.4597 65.5741 50.5202 65.5387 50.576C65.4541 50.7267 65.3567 50.8699 65.2477 51.004C64.888 51.4734 64.4194 51.8481 63.8823 52.0956C63.3461 52.3408 62.7594 52.4553 62.1703 52.4294C61.993 52.4212 61.8168 52.3969 61.6439 52.3567C61.5198 52.331 61.4513 52.3096 61.4556 52.301C61.4598 52.2925 61.7295 52.3567 62.1746 52.3652C62.7533 52.3767 63.3271 52.2566 63.8527 52.0142C64.3784 51.7717 64.8421 51.4132 65.2091 50.9655C65.4831 50.6402 65.6029 50.3877 65.62 50.3962Z" fill="#E0E0E0"/>
<path d="M64.4858 53.0244C64.5309 52.4904 64.4078 51.9557 64.1338 51.4951C63.8598 51.0346 63.4486 50.6713 62.9578 50.4561C62.9578 50.4561 63.0049 50.4561 63.0819 50.4861C63.1918 50.5265 63.2978 50.5766 63.3987 50.6359C63.7333 50.8331 64.013 51.1113 64.2119 51.4449C64.4109 51.7785 64.5227 52.1568 64.5371 52.545C64.5453 52.6604 64.5453 52.7763 64.5371 52.8917C64.5157 52.9816 64.5157 53.0287 64.4858 53.0244Z" fill="#E0E0E0"/>
<path d="M66.2278 52.2882C66.2278 52.2882 66.2278 52.0699 66.1336 51.7317C66.0339 51.2931 65.8366 50.8826 65.5566 50.5306C65.2765 50.1786 64.9208 49.8942 64.5158 49.6985C64.2033 49.5487 63.9893 49.5016 63.9936 49.4888C64.0458 49.488 64.0978 49.4952 64.1477 49.5102C64.2824 49.5433 64.4142 49.5877 64.5415 49.6429C64.9666 49.8281 65.341 50.1129 65.6329 50.4733C65.9181 50.8378 66.1132 51.2646 66.2021 51.7189C66.2272 51.8602 66.2401 52.0034 66.2406 52.1469C66.2416 52.1943 66.2373 52.2417 66.2278 52.2882Z" fill="#E0E0E0"/>
<path d="M63.4287 46.287C63.34 46.407 63.2201 46.5003 63.082 46.5567C62.8423 46.6894 62.4699 46.7579 62.1147 46.9376C61.6862 47.1729 61.3218 47.5094 61.0532 47.9179C61.0992 47.7782 61.1719 47.6488 61.2672 47.5369C61.4794 47.251 61.7548 47.018 62.0719 46.8563C62.4485 46.6722 62.8209 46.6123 63.0563 46.501C63.185 46.4379 63.3094 46.3664 63.4287 46.287Z" fill="#E0E0E0"/>
<path d="M65.7998 46.3854C65.7919 46.4518 65.7746 46.5166 65.7484 46.5781C65.6906 46.7477 65.6191 46.9123 65.5344 47.0703C64.9786 48.1337 64.0246 48.9339 62.8808 49.2961C62.7106 49.3524 62.5359 49.3939 62.3587 49.4203L62.1661 49.4417C62.1661 49.4417 62.44 49.3817 62.8637 49.2362C63.9724 48.8449 64.9015 48.0647 65.4788 47.0404C65.6885 46.6594 65.7998 46.3812 65.7998 46.3854Z" fill="#E0E0E0"/>
<path d="M65.1278 48.7996C65.1278 48.7996 65.0593 48.774 64.9481 48.7097L64.4687 48.4272L62.8894 47.5155L61.2929 46.6252L60.8093 46.3598C60.7487 46.33 60.6914 46.2941 60.6381 46.2528C60.7035 46.2713 60.7667 46.2972 60.8264 46.3298L61.3229 46.5695C61.7509 46.7835 62.3116 47.0832 62.9322 47.4256C63.5528 47.768 64.1092 48.1148 64.5029 48.3673L64.9652 48.6712C65.0238 48.7081 65.0784 48.7511 65.1278 48.7996Z" fill="#E0E0E0"/>
<path d="M55.5277 69.8123C55.6972 69.4185 55.9348 69.0577 56.2296 68.7465C56.46 68.3916 56.7495 68.0789 57.0856 67.8219C56.9161 68.2157 56.6785 68.5765 56.3837 68.8877C56.1534 69.2426 55.8638 69.5553 55.5277 69.8123Z" fill="#263238"/>
<path d="M56.0841 70.0006C56.0328 69.9621 56.2125 69.624 56.4779 69.243C56.7433 68.862 57.0043 68.5838 57.0557 68.618C57.1071 68.6523 56.9316 68.9904 56.6619 69.3714C56.3923 69.7524 56.1355 70.0349 56.0841 70.0006Z" fill="#263238"/>
<path d="M57.5179 70.2318C57.4537 70.2318 57.4409 69.915 57.488 69.5341C57.5351 69.1531 57.6164 68.8577 57.6806 68.8663C57.7448 68.8749 57.7534 69.1831 57.7106 69.564C57.6678 69.945 57.5779 70.2403 57.5179 70.2318Z" fill="#263238"/>
<path d="M68.8514 62.253C68.7283 61.9418 68.6771 61.6067 68.7016 61.2728C68.6533 60.9405 68.6782 60.6015 68.7744 60.2798C68.8978 60.5925 68.9489 60.929 68.9242 61.2643C68.9723 61.5952 68.9475 61.9327 68.8514 62.253Z" fill="#263238"/>
<path d="M69.6518 62.497C69.4462 62.2014 69.3168 61.8596 69.2749 61.5019C69.2331 61.1442 69.2803 60.7818 69.4122 60.4467C69.4597 60.7886 69.4868 61.1331 69.4935 61.4783C69.5703 61.8137 69.6232 62.1541 69.6518 62.497Z" fill="#263238"/>
<path d="M70.8459 62.7068C70.5689 62.4449 70.3496 62.128 70.2022 61.7764C70.0547 61.4248 69.9825 61.0462 69.99 60.665C70.1621 60.9929 70.3053 61.3352 70.418 61.688C70.5895 62.0147 70.7326 62.3556 70.8459 62.7068Z" fill="#263238"/>
<path d="M79.8896 50.6188C79.864 50.6745 79.4616 50.5075 79.1492 50.0709C78.8367 49.6343 78.8239 49.1849 78.8838 49.1849C78.9438 49.1849 79.055 49.553 79.3118 49.9425C79.5686 50.332 79.9239 50.5632 79.8896 50.6188Z" fill="#263238"/>
<path d="M80.4931 50.4733C80.4674 50.5289 80.1507 50.4219 79.8768 50.1266C79.6029 49.8312 79.5259 49.5059 79.5815 49.4845C79.6371 49.4631 79.7955 49.7157 80.0394 49.9768C80.2834 50.2379 80.5231 50.4176 80.4931 50.4733Z" fill="#263238"/>
<path d="M81.7086 50.6231C81.6872 50.6788 81.2164 50.4947 80.7927 50.0495C80.5131 49.8058 80.3257 49.4733 80.262 49.1078C80.3219 49.0779 80.5573 49.4845 80.9554 49.8954C81.3534 50.3064 81.7429 50.5675 81.7086 50.6231Z" fill="#263238"/>
<path d="M70.8031 41.5828C70.7389 41.5828 70.6576 41.2875 70.6234 40.9108C70.5891 40.5341 70.6234 40.2216 70.6619 40.2131C70.7004 40.2045 70.8031 40.5084 70.8417 40.8894C70.8802 41.2703 70.8631 41.5785 70.8031 41.5828Z" fill="#263238"/>
<path d="M71.4494 41.2746C71.3938 41.3003 71.2269 40.9921 71.1841 40.5726C71.1412 40.1532 71.2397 39.8236 71.2953 39.8321C71.351 39.8407 71.3638 40.1617 71.4066 40.5512C71.4494 40.9407 71.5094 41.2532 71.4494 41.2746Z" fill="#263238"/>
<path d="M72.1342 41.5785C72.0829 41.6085 71.8475 41.2746 71.7362 40.7909C71.6321 40.5062 71.6321 40.1939 71.7362 39.9092C71.8004 39.9092 71.8389 40.2901 71.9459 40.7396C72.0529 41.189 72.1941 41.5486 72.1342 41.5785Z" fill="#263238"/>
<path d="M57.3724 85.6627C57.379 84.8805 57.533 84.1065 57.8261 83.3813C57.8631 83.7718 57.8239 84.1658 57.7106 84.5413C57.6674 84.9326 57.5528 85.3127 57.3724 85.6627Z" fill="#263238"/>
<path d="M58.0957 84.9822C58.0358 84.9822 58.0358 84.6868 58.0957 84.3529C58.1557 84.0191 58.2584 83.7537 58.3183 83.7665C58.3782 83.7794 58.3782 84.0576 58.3183 84.3915C58.2584 84.7253 58.1343 84.9907 58.0957 84.9822Z" fill="#263238"/>
<path d="M32.3128 62.2873C32.2486 62.2873 32.3128 61.5168 32.1502 60.6008C31.9876 59.6848 31.6494 58.9956 31.7222 58.9657C32.0842 59.4273 32.3122 59.9797 32.3813 60.5623C32.5195 61.1324 32.4958 61.7299 32.3128 62.2873Z" fill="#263238"/>
<path d="M92.1391 36.3393C92.1461 36.4692 92.1316 36.5993 92.0963 36.7245C92.0261 37.0698 91.9288 37.409 91.8053 37.739C91.6229 38.2324 91.3875 38.7046 91.1033 39.1472C90.7535 39.6979 90.2875 40.1654 89.738 40.517C89.1805 40.8471 88.5735 41.0856 87.9404 41.2232C87.0884 41.4243 86.2125 41.505 85.3381 41.4629C85.208 41.4642 85.0782 41.4469 84.9529 41.4116C84.9529 41.3731 85.5051 41.3902 86.3782 41.296C86.8892 41.2418 87.3956 41.1502 87.8933 41.0221C88.495 40.8766 89.072 40.6429 89.6053 40.3286C90.1254 39.995 90.5712 39.5579 90.915 39.0445C91.1991 38.6188 91.4427 38.1674 91.6426 37.6962C91.9979 36.8743 92.1006 36.3307 92.1391 36.3393Z" fill="#263238"/>
<path d="M81.2807 36.1852C81.0966 36.1914 80.9224 36.2696 80.7955 36.4031C80.6686 36.5365 80.5993 36.7145 80.6024 36.8986C80.6055 37.0827 80.6808 37.2582 80.812 37.3873C80.9433 37.5164 81.1201 37.5888 81.3042 37.5888C81.4883 37.5888 81.6651 37.5164 81.7963 37.3873C81.9276 37.2582 82.0029 37.0827 82.006 36.8986C82.0091 36.7145 81.9397 36.5365 81.8128 36.4031C81.686 36.2696 81.5117 36.1914 81.3277 36.1852" fill="#263238"/>
<path d="M78.6398 36.6774C78.5543 36.6988 78.4344 36.5747 78.3574 36.3307C78.2724 36.0053 78.2852 35.6621 78.394 35.3439C78.5028 35.0257 78.703 34.7467 78.9694 34.5415C79.1791 34.3917 79.3503 34.3703 79.3974 34.443C79.5087 34.5929 79.2005 35.0038 79.0208 35.5602C78.841 36.1167 78.8367 36.6218 78.6398 36.6774Z" fill="#263238"/>
<path d="M64.366 60.0358C63.0462 61.4765 61.3732 62.5477 59.5124 63.1434C59.8555 63.3726 60.2557 63.5016 60.668 63.5158C59.9428 63.9607 59.1466 64.2778 58.314 64.4532C58.8616 64.7183 59.4666 64.8428 60.0744 64.8152C60.6822 64.7877 61.2735 64.609 61.7948 64.2954C62.3162 63.9818 62.7511 63.5431 63.0603 63.0191C63.3695 62.4951 63.5432 61.9023 63.5656 61.2942" fill="#744DBE"/>
<path d="M23.8983 54.24C23.7986 54.0779 23.7196 53.9039 23.6629 53.7221C23.5725 53.5127 23.4939 53.2983 23.4275 53.08C23.3548 52.8318 23.252 52.5493 23.1836 52.224C22.9979 51.4766 22.8762 50.7148 22.8198 49.9468C22.6827 48.0637 22.9213 46.1722 23.5217 44.3822C23.7696 43.6532 24.0774 42.9459 24.4419 42.2677C24.5874 41.9723 24.7586 41.7283 24.8913 41.5058C25.0075 41.3155 25.1332 41.1312 25.2679 40.9536C25.3716 40.7981 25.4922 40.6545 25.6275 40.5255C25.666 40.5512 25.1738 41.1976 24.5831 42.3533C24.2439 43.0321 23.9577 43.7362 23.7271 44.4592C23.4484 45.3465 23.2451 46.2558 23.1194 47.1773C23.0114 48.1006 22.9828 49.0314 23.0338 49.9596C23.0804 50.7184 23.1848 51.4725 23.3462 52.2154C23.6244 53.4781 23.9411 54.2272 23.8983 54.24Z" fill="#263238"/>
<path d="M20.7055 52.438C20.6376 52.332 20.5857 52.2167 20.5514 52.0956C20.4267 51.7773 20.328 51.4495 20.256 51.1153C19.75 48.8994 19.9985 46.5778 20.9622 44.5192C21.1059 44.2094 21.2718 43.9104 21.4587 43.6246C21.5914 43.4234 21.6727 43.3164 21.6856 43.325C21.6984 43.3335 21.4416 43.8001 21.1078 44.5834C20.243 46.6358 20.0076 48.8989 20.4315 51.0854C20.5685 51.9201 20.744 52.4252 20.7055 52.438Z" fill="#263238"/>
<path d="M50.4302 53.2898C50.3789 53.2898 50.473 52.515 50.3532 51.2737C50.3242 50.9359 50.2756 50.6 50.2077 50.2678C50.152 49.9082 50.045 49.5316 49.9423 49.1378C49.4516 47.4197 48.5928 45.8291 47.4256 44.4764C47.1474 44.1725 46.8949 43.8771 46.621 43.6203C46.3808 43.3814 46.1279 43.1556 45.8634 42.944C44.8919 42.1649 44.1899 41.8225 44.2156 41.7797C44.3874 41.8391 44.5524 41.9166 44.7078 42.0109C44.8987 42.1072 45.0832 42.2158 45.2599 42.3362C45.5015 42.484 45.7344 42.6455 45.9576 42.8199C46.2345 43.0251 46.4989 43.2466 46.7494 43.4833C47.0413 43.7536 47.3185 44.0394 47.5797 44.3394C48.1738 45.0251 48.6946 45.7711 49.1334 46.5652C49.5575 47.3659 49.8947 48.2097 50.1392 49.0821C50.2443 49.4625 50.3286 49.8483 50.3917 50.2378C50.4519 50.5762 50.4919 50.9178 50.5115 51.2609C50.5458 51.5733 50.5329 51.8601 50.5372 52.117C50.5407 52.3301 50.5292 52.5432 50.503 52.7547C50.4956 52.935 50.4713 53.1141 50.4302 53.2898Z" fill="#263238"/>
</svg>
